<svg xmlns="http://www.w3.org/2000/svg" xmlns:xlink="http://www.w3.org/1999/xlink" width="271" zoomAndPan="magnify" viewBox="0 0 203.25 68.999997" height="92" preserveAspectRatio="xMidYMid meet" version="1.0"><defs><g/><clipPath id="e17066314b"><path d="M 162.519531 18.265625 L 186 18.265625 L 186 45 L 162.519531 45 Z M 162.519531 18.265625 " clip-rule="nonzero"/></clipPath><clipPath id="f4179eff9f"><path d="M 179 25 L 202.125 25 L 202.125 50.394531 L 179 50.394531 Z M 179 25 " clip-rule="nonzero"/></clipPath></defs><g clip-path="url(#e17066314b)"><path fill="#231f20" d="M 182.273438 18.382812 C 182.746094 18.273438 183.320312 18.441406 183.570312 18.871094 C 183.75 19.183594 183.796875 19.550781 183.914062 19.890625 C 184.839844 22.769531 185.4375 25.769531 185.519531 28.800781 C 185.636719 31.882812 185.285156 35.023438 184.183594 37.917969 C 183.394531 39.988281 182.179688 41.9375 180.472656 43.351562 C 179.519531 44.140625 178.382812 44.746094 177.144531 44.886719 C 176.019531 45 174.886719 44.761719 173.835938 44.363281 C 172.667969 43.878906 171.539062 43.265625 170.570312 42.4375 C 168.792969 40.992188 167.34375 39.15625 166.207031 37.164062 C 165.378906 35.691406 164.691406 34.136719 164.171875 32.523438 C 163.246094 29.804688 162.75 26.953125 162.554688 24.085938 C 162.535156 23.832031 162.519531 23.566406 162.527344 23.308594 C 162.570312 22.683594 163.195312 22.191406 163.800781 22.246094 C 163.976562 22.261719 164.144531 22.296875 164.316406 22.324219 C 167.203125 22.832031 170.183594 22.886719 173.066406 22.328125 C 176.054688 21.746094 178.890625 20.492188 181.445312 18.828125 C 181.714844 18.667969 181.964844 18.460938 182.273438 18.382812 Z M 178.933594 26.136719 C 178.070312 26.332031 177.3125 26.945312 176.941406 27.753906 C 176.671875 28.335938 176.53125 29.03125 176.746094 29.648438 C 177.480469 28.972656 178.34375 28.433594 179.300781 28.152344 C 180.5 27.792969 181.816406 27.765625 183.007812 28.179688 C 182.703125 27.585938 182.21875 27.105469 181.683594 26.726562 C 180.902344 26.15625 179.875 25.90625 178.933594 26.136719 Z M 168.007812 28.917969 C 167.171875 29.609375 166.675781 30.691406 166.660156 31.78125 C 166.683594 31.765625 166.730469 31.734375 166.75 31.71875 C 168.355469 30.203125 170.808594 29.753906 172.863281 30.484375 C 172.851562 30.089844 172.667969 29.730469 172.441406 29.421875 C 171.917969 28.703125 171.070312 28.238281 170.191406 28.191406 C 169.40625 28.132812 168.605469 28.402344 168.007812 28.917969 Z M 180.816406 34.148438 C 180.085938 34.78125 179.320312 35.386719 178.460938 35.832031 C 177.542969 36.289062 176.574219 36.664062 175.554688 36.800781 C 173.996094 37.070312 172.382812 36.902344 170.886719 36.402344 C 170.75 36.351562 170.597656 36.335938 170.488281 36.476562 C 170.398438 36.585938 170.460938 36.707031 170.511719 36.8125 C 171.335938 38.335938 172.800781 39.488281 174.460938 39.914062 C 175.253906 40.132812 176.097656 40.167969 176.894531 39.976562 C 177.933594 39.71875 178.882812 39.128906 179.578125 38.304688 C 180.4375 37.332031 180.957031 36.089844 181.171875 34.816406 C 181.195312 34.628906 181.265625 34.429688 181.199219 34.253906 C 181.148438 34.121094 180.9375 34.042969 180.816406 34.148438 Z M 180.816406 34.148438 " fill-opacity="1" fill-rule="nonzero"/></g><g clip-path="url(#f4179eff9f)"><path fill="#231f20" d="M 186.351562 25.871094 C 188.964844 27.34375 191.847656 28.300781 194.804688 28.722656 C 196.558594 28.980469 198.339844 29.050781 200.109375 28.96875 C 200.550781 28.964844 201.035156 28.902344 201.429688 29.144531 C 201.859375 29.390625 202.125 29.921875 202.019531 30.417969 C 201.730469 31.894531 201.386719 33.359375 200.921875 34.792969 C 200.542969 36.058594 200.046875 37.28125 199.515625 38.484375 C 198.566406 40.601562 197.394531 42.621094 195.957031 44.433594 C 194.476562 46.289062 192.648438 47.867188 190.574219 49 C 189.523438 49.554688 188.394531 49.972656 187.222656 50.160156 C 185.910156 50.386719 184.5 50.21875 183.324219 49.5625 C 181.628906 48.609375 180.421875 46.984375 179.527344 45.28125 C 180.363281 44.835938 181.144531 44.285156 181.820312 43.617188 C 182.0625 43.382812 182.292969 43.136719 182.527344 42.894531 C 183.039062 43.675781 183.660156 44.402344 184.429688 44.933594 C 185.441406 45.625 186.703125 45.925781 187.917969 45.78125 C 189.714844 45.59375 191.359375 44.476562 192.335938 42.949219 C 192.421875 42.832031 192.453125 42.632812 192.3125 42.550781 C 192.164062 42.460938 191.976562 42.542969 191.816406 42.558594 C 190.1875 42.820312 188.503906 42.828125 186.894531 42.445312 C 185.792969 42.199219 184.765625 41.699219 183.777344 41.164062 C 184.089844 40.605469 184.429688 40.058594 184.695312 39.472656 C 185.464844 37.785156 185.964844 35.980469 186.273438 34.152344 C 186.492188 34.40625 186.683594 34.683594 186.949219 34.890625 C 187.226562 34.164062 187.105469 33.339844 186.792969 32.648438 C 186.71875 32.464844 186.539062 32.308594 186.570312 32.097656 C 186.695312 30.019531 186.660156 27.929688 186.351562 25.871094 Z M 191.824219 34.625 C 191.316406 34.984375 190.914062 35.519531 190.796875 36.144531 C 192.375 35.773438 194.09375 36.019531 195.503906 36.824219 C 196.042969 37.132812 196.511719 37.554688 196.949219 37.992188 C 197.054688 36.3125 195.867188 34.636719 194.25 34.222656 C 193.433594 34.003906 192.527344 34.148438 191.824219 34.625 Z M 191.824219 34.625 " fill-opacity="1" fill-rule="nonzero"/></g><g fill="#000000" fill-opacity="1"><g transform="translate(15.21957, 48.76138)"><g><path d="M 16.765625 -9.5625 C 16.867188 -10.050781 17.101562 -10.398438 17.46875 -10.609375 C 17.832031 -10.828125 18.210938 -10.9375 18.609375 -10.9375 C 19.097656 -10.9375 19.550781 -10.78125 19.96875 -10.46875 C 20.382812 -10.164062 20.59375 -9.738281 20.59375 -9.1875 C 20.59375 -8.988281 20.5625 -8.765625 20.5 -8.515625 C 20.007812 -6.960938 19.320312 -5.640625 18.4375 -4.546875 C 17.550781 -3.453125 16.554688 -2.570312 15.453125 -1.90625 C 14.347656 -1.25 13.203125 -0.765625 12.015625 -0.453125 C 10.828125 -0.148438 9.679688 0 8.578125 0 C 6.722656 0 5.085938 -0.332031 3.671875 -1 C 2.265625 -1.675781 1.164062 -2.585938 0.375 -3.734375 C -0.40625 -4.878906 -0.796875 -6.140625 -0.796875 -7.515625 C -0.796875 -8.515625 -0.613281 -9.523438 -0.25 -10.546875 L 3.734375 -21.9375 C 4.148438 -23.125 4.664062 -24.09375 5.28125 -24.84375 C 5.90625 -25.601562 6.578125 -26.179688 7.296875 -26.578125 C 8.023438 -26.984375 8.738281 -27.265625 9.4375 -27.421875 C 10.132812 -27.585938 10.769531 -27.671875 11.34375 -27.671875 C 12.5625 -27.671875 13.648438 -27.453125 14.609375 -27.015625 C 15.578125 -26.578125 16.34375 -25.941406 16.90625 -25.109375 C 17.46875 -24.285156 17.75 -23.289062 17.75 -22.125 C 17.75 -21.78125 17.722656 -21.421875 17.671875 -21.046875 C 17.617188 -20.679688 17.539062 -20.285156 17.4375 -19.859375 C 17.15625 -18.816406 16.734375 -18.078125 16.171875 -17.640625 C 15.609375 -17.203125 15.050781 -16.984375 14.5 -16.984375 C 13.882812 -16.984375 13.34375 -17.1875 12.875 -17.59375 C 12.40625 -18 12.171875 -18.476562 12.171875 -19.03125 C 12.171875 -19.28125 12.210938 -19.503906 12.296875 -19.703125 C 12.554688 -20.335938 12.6875 -20.890625 12.6875 -21.359375 C 12.6875 -21.847656 12.566406 -22.203125 12.328125 -22.421875 C 12.097656 -22.648438 11.800781 -22.765625 11.4375 -22.765625 C 11.1875 -22.765625 10.890625 -22.703125 10.546875 -22.578125 C 10.210938 -22.460938 9.867188 -22.234375 9.515625 -21.890625 C 9.160156 -21.554688 8.859375 -21.039062 8.609375 -20.34375 L 4.59375 -9.140625 C 4.507812 -8.867188 4.441406 -8.597656 4.390625 -8.328125 C 4.347656 -8.066406 4.328125 -7.820312 4.328125 -7.59375 C 4.328125 -6.882812 4.570312 -6.257812 5.0625 -5.71875 C 5.550781 -5.175781 6.175781 -4.75 6.9375 -4.4375 C 7.707031 -4.132812 8.507812 -3.984375 9.34375 -3.984375 C 10.1875 -3.984375 11.085938 -4.164062 12.046875 -4.53125 C 13.003906 -4.90625 13.90625 -5.5 14.75 -6.3125 C 15.601562 -7.132812 16.273438 -8.21875 16.765625 -9.5625 Z M 16.765625 -9.5625 "/></g></g></g><g fill="#000000" fill-opacity="1"><g transform="translate(30.806207, 48.76138)"><g><path d="M 8.578125 -21.640625 C 7.847656 -21.640625 7.226562 -21.898438 6.71875 -22.421875 C 6.207031 -22.941406 5.953125 -23.5625 5.953125 -24.28125 C 5.953125 -25.007812 6.207031 -25.625 6.71875 -26.125 C 7.226562 -26.625 7.847656 -26.875 8.578125 -26.875 C 9.296875 -26.875 9.910156 -26.625 10.421875 -26.125 C 10.929688 -25.625 11.1875 -25.007812 11.1875 -24.28125 C 11.1875 -23.5625 10.929688 -22.941406 10.421875 -22.421875 C 9.910156 -21.898438 9.296875 -21.640625 8.578125 -21.640625 Z M 4.265625 -5.390625 C 4.203125 -5.191406 4.171875 -5.019531 4.171875 -4.875 C 4.171875 -4.582031 4.28125 -4.328125 4.5 -4.109375 C 4.726562 -3.898438 5.023438 -3.796875 5.390625 -3.796875 C 6.023438 -3.796875 6.738281 -4.1875 7.53125 -4.96875 C 8.332031 -5.757812 9.101562 -7.1875 9.84375 -9.25 C 10.039062 -9.738281 10.332031 -10.097656 10.71875 -10.328125 C 11.113281 -10.554688 11.523438 -10.671875 11.953125 -10.671875 C 12.441406 -10.671875 12.878906 -10.523438 13.265625 -10.234375 C 13.660156 -9.953125 13.859375 -9.566406 13.859375 -9.078125 C 13.859375 -8.890625 13.828125 -8.703125 13.765625 -8.515625 C 13.023438 -6.328125 12.171875 -4.609375 11.203125 -3.359375 C 10.234375 -2.117188 9.210938 -1.25 8.140625 -0.75 C 7.066406 -0.25 6.007812 0 4.96875 0 C 3.988281 0 3.085938 -0.179688 2.265625 -0.546875 C 1.453125 -0.921875 0.796875 -1.457031 0.296875 -2.15625 C -0.203125 -2.863281 -0.453125 -3.71875 -0.453125 -4.71875 C -0.453125 -4.988281 -0.394531 -5.316406 -0.28125 -5.703125 C -0.175781 -6.085938 -0.0820312 -6.4375 0 -6.75 C 0.34375 -7.75 0.707031 -8.8125 1.09375 -9.9375 C 1.488281 -11.070312 1.882812 -12.203125 2.28125 -13.328125 C 2.675781 -14.453125 3.039062 -15.515625 3.375 -16.515625 C 3.632812 -17.253906 4.003906 -17.800781 4.484375 -18.15625 C 4.960938 -18.519531 5.441406 -18.703125 5.921875 -18.703125 C 6.472656 -18.703125 6.96875 -18.519531 7.40625 -18.15625 C 7.84375 -17.800781 8.0625 -17.273438 8.0625 -16.578125 C 8.0625 -16.429688 8.03125 -16.25 7.96875 -16.03125 C 7.90625 -15.820312 7.84375 -15.609375 7.78125 -15.390625 Z M 4.265625 -5.390625 "/></g></g></g><g fill="#000000" fill-opacity="1"><g transform="translate(39.603571, 48.76138)"><g><path d="M 17.78125 -9.1875 C 17.957031 -9.71875 18.25 -10.101562 18.65625 -10.34375 C 19.070312 -10.582031 19.492188 -10.703125 19.921875 -10.703125 C 20.410156 -10.703125 20.84375 -10.566406 21.21875 -10.296875 C 21.601562 -10.035156 21.796875 -9.648438 21.796875 -9.140625 C 21.796875 -8.929688 21.742188 -8.691406 21.640625 -8.421875 C 20.921875 -6.359375 20.070312 -4.707031 19.09375 -3.46875 C 18.113281 -2.238281 17.078125 -1.351562 15.984375 -0.8125 C 14.890625 -0.269531 13.800781 0 12.71875 0 C 11.820312 0 10.976562 -0.164062 10.1875 -0.5 C 9.40625 -0.84375 8.773438 -1.347656 8.296875 -2.015625 C 7.828125 -2.691406 7.59375 -3.519531 7.59375 -4.5 C 7.59375 -4.832031 7.628906 -5.175781 7.703125 -5.53125 C 7.773438 -5.882812 7.875 -6.238281 8 -6.59375 L 10.328125 -13.171875 C 10.429688 -13.484375 10.484375 -13.75 10.484375 -13.96875 C 10.484375 -14.257812 10.390625 -14.492188 10.203125 -14.671875 C 10.023438 -14.859375 9.789062 -14.953125 9.5 -14.953125 C 9.050781 -14.953125 8.566406 -14.757812 8.046875 -14.375 C 7.523438 -13.988281 7.050781 -13.394531 6.625 -12.59375 C 6.269531 -11.570312 5.875 -10.4375 5.4375 -9.1875 C 5 -7.945312 4.5625 -6.710938 4.125 -5.484375 C 3.6875 -4.253906 3.28125 -3.117188 2.90625 -2.078125 C 2.664062 -1.347656 2.265625 -0.804688 1.703125 -0.453125 C 1.140625 -0.109375 0.582031 0.0625 0.03125 0.0625 C -0.476562 0.0625 -0.925781 -0.0820312 -1.3125 -0.375 C -1.707031 -0.675781 -1.90625 -1.125 -1.90625 -1.71875 C -1.90625 -2 -1.863281 -2.265625 -1.78125 -2.515625 L 3.53125 -17.40625 C 3.707031 -17.851562 3.984375 -18.179688 4.359375 -18.390625 C 4.742188 -18.597656 5.160156 -18.703125 5.609375 -18.703125 C 6.035156 -18.703125 6.425781 -18.628906 6.78125 -18.484375 C 7.144531 -18.335938 7.367188 -18.113281 7.453125 -17.8125 C 8.265625 -18.40625 9.285156 -18.703125 10.515625 -18.703125 C 11.367188 -18.703125 12.148438 -18.503906 12.859375 -18.109375 C 13.566406 -17.722656 14.140625 -17.191406 14.578125 -16.515625 C 15.015625 -15.847656 15.234375 -15.09375 15.234375 -14.25 C 15.234375 -13.738281 15.117188 -13.15625 14.890625 -12.5 L 12.40625 -5.421875 C 12.289062 -5.054688 12.234375 -4.789062 12.234375 -4.625 C 12.234375 -4.070312 12.53125 -3.796875 13.125 -3.796875 C 13.875 -3.796875 14.660156 -4.210938 15.484375 -5.046875 C 16.316406 -5.890625 17.082031 -7.269531 17.78125 -9.1875 Z M 17.78125 -9.1875 "/></g></g></g><g fill="#000000" fill-opacity="1"><g transform="translate(56.337696, 48.76138)"><g><path d="M 16.125 -8.984375 C 16.28125 -9.472656 16.5625 -9.835938 16.96875 -10.078125 C 17.382812 -10.328125 17.816406 -10.453125 18.265625 -10.453125 C 18.753906 -10.453125 19.179688 -10.316406 19.546875 -10.046875 C 19.921875 -9.785156 20.109375 -9.410156 20.109375 -8.921875 C 20.109375 -8.710938 20.066406 -8.488281 19.984375 -8.25 C 19.285156 -6.238281 18.304688 -4.625 17.046875 -3.40625 C 15.796875 -2.195312 14.414062 -1.328125 12.90625 -0.796875 C 11.394531 -0.265625 9.898438 0 8.421875 0 C 6.867188 0 5.46875 -0.25 4.21875 -0.75 C 2.976562 -1.25 1.992188 -1.957031 1.265625 -2.875 C 0.546875 -3.800781 0.1875 -4.894531 0.1875 -6.15625 C 0.1875 -6.507812 0.222656 -6.878906 0.296875 -7.265625 C 0.378906 -7.648438 0.484375 -8.035156 0.609375 -8.421875 L 2.484375 -13.859375 C 3.035156 -15.453125 3.9375 -16.65625 5.1875 -17.46875 C 6.445312 -18.289062 7.789062 -18.703125 9.21875 -18.703125 C 10.425781 -18.703125 11.472656 -18.46875 12.359375 -18 C 13.253906 -17.539062 13.953125 -16.90625 14.453125 -16.09375 C 14.953125 -15.289062 15.203125 -14.378906 15.203125 -13.359375 C 15.203125 -12.828125 15.117188 -12.242188 14.953125 -11.609375 C 14.523438 -10.179688 13.726562 -9.039062 12.5625 -8.1875 C 11.394531 -7.34375 10.085938 -6.921875 8.640625 -6.921875 C 8.003906 -6.921875 7.40625 -7.007812 6.84375 -7.1875 C 6.28125 -7.363281 5.765625 -7.59375 5.296875 -7.875 L 5.03125 -7.265625 C 4.96875 -7.117188 4.925781 -6.96875 4.90625 -6.8125 C 4.882812 -6.664062 4.875 -6.519531 4.875 -6.375 C 4.875 -5.65625 5.210938 -5.046875 5.890625 -4.546875 C 6.578125 -4.046875 7.503906 -3.796875 8.671875 -3.796875 C 9.585938 -3.796875 10.523438 -3.96875 11.484375 -4.3125 C 12.453125 -4.664062 13.347656 -5.222656 14.171875 -5.984375 C 15.003906 -6.753906 15.65625 -7.753906 16.125 -8.984375 Z M 9.109375 -14.953125 C 8.753906 -14.953125 8.394531 -14.8125 8.03125 -14.53125 C 7.664062 -14.257812 7.398438 -13.878906 7.234375 -13.390625 L 6.5625 -11.46875 C 7.007812 -11.21875 7.5625 -11.09375 8.21875 -11.09375 C 8.707031 -11.09375 9.164062 -11.195312 9.59375 -11.40625 C 10.019531 -11.625 10.304688 -12 10.453125 -12.53125 C 10.535156 -12.757812 10.578125 -13.015625 10.578125 -13.296875 C 10.578125 -13.765625 10.441406 -14.15625 10.171875 -14.46875 C 9.910156 -14.789062 9.554688 -14.953125 9.109375 -14.953125 Z M 9.109375 -14.953125 "/></g></g></g><g fill="#000000" fill-opacity="1"><g transform="translate(71.446213, 48.76138)"><g><path d="M 22.40625 -9.46875 C 22.53125 -9.914062 22.769531 -10.238281 23.125 -10.4375 C 23.476562 -10.632812 23.851562 -10.734375 24.25 -10.734375 C 24.757812 -10.734375 25.226562 -10.585938 25.65625 -10.296875 C 26.082031 -10.015625 26.296875 -9.609375 26.296875 -9.078125 C 26.296875 -9.015625 26.289062 -8.945312 26.28125 -8.875 C 26.269531 -8.800781 26.253906 -8.722656 26.234375 -8.640625 C 25.679688 -6.703125 24.703125 -5.140625 23.296875 -3.953125 C 21.898438 -2.765625 20.265625 -2.171875 18.390625 -2.171875 C 17.671875 -2.171875 17.003906 -2.265625 16.390625 -2.453125 C 15.429688 -1.472656 14.335938 -0.757812 13.109375 -0.3125 C 11.890625 0.125 10.675781 0.34375 9.46875 0.34375 C 8.21875 0.34375 7.023438 0.113281 5.890625 -0.34375 C 4.765625 -0.8125 3.925781 -1.441406 3.375 -2.234375 C 3.226562 -1.359375 2.882812 -0.710938 2.34375 -0.296875 C 1.800781 0.109375 1.253906 0.3125 0.703125 0.3125 C 0.171875 0.3125 -0.304688 0.132812 -0.734375 -0.21875 C -1.160156 -0.582031 -1.375 -1.09375 -1.375 -1.75 C -1.375 -1.925781 -1.359375 -2.109375 -1.328125 -2.296875 C -1.296875 -2.484375 -1.234375 -2.6875 -1.140625 -2.90625 L 7.203125 -26.515625 C 7.429688 -27.265625 7.8125 -27.804688 8.34375 -28.140625 C 8.875 -28.484375 9.40625 -28.65625 9.9375 -28.65625 C 10.5 -28.65625 10.976562 -28.503906 11.375 -28.203125 C 11.78125 -27.910156 11.984375 -27.5 11.984375 -26.96875 C 12.597656 -27.257812 13.1875 -27.453125 13.75 -27.546875 C 14.3125 -27.648438 14.816406 -27.703125 15.265625 -27.703125 C 15.503906 -27.703125 15.707031 -27.695312 15.875 -27.6875 C 16.039062 -27.675781 16.203125 -27.660156 16.359375 -27.640625 C 17.285156 -27.554688 18.140625 -27.285156 18.921875 -26.828125 C 19.710938 -26.367188 20.351562 -25.742188 20.84375 -24.953125 C 21.332031 -24.171875 21.578125 -23.238281 21.578125 -22.15625 C 21.578125 -21.34375 21.421875 -20.507812 21.109375 -19.65625 C 20.804688 -18.8125 20.390625 -18.019531 19.859375 -17.28125 C 19.328125 -16.550781 18.703125 -15.941406 17.984375 -15.453125 C 18.660156 -14.734375 19.140625 -13.953125 19.421875 -13.109375 C 19.710938 -12.273438 19.859375 -11.429688 19.859375 -10.578125 C 19.859375 -9.773438 19.75 -8.992188 19.53125 -8.234375 C 19.320312 -7.484375 19.035156 -6.800781 18.671875 -6.1875 L 18.703125 -6.1875 C 19.578125 -6.1875 20.328125 -6.488281 20.953125 -7.09375 C 21.578125 -7.695312 22.0625 -8.488281 22.40625 -9.46875 Z M 11 -18.703125 C 11.351562 -18.859375 11.753906 -18.9375 12.203125 -18.9375 C 12.671875 -18.9375 13.101562 -18.867188 13.5 -18.734375 C 13.894531 -18.609375 14.164062 -18.484375 14.3125 -18.359375 C 15.070312 -18.679688 15.585938 -19.160156 15.859375 -19.796875 C 16.140625 -20.429688 16.28125 -20.984375 16.28125 -21.453125 C 16.28125 -22.003906 16.078125 -22.4375 15.671875 -22.75 C 15.273438 -23.070312 14.789062 -23.234375 14.21875 -23.234375 C 13.539062 -23.234375 12.8125 -23.039062 12.03125 -22.65625 C 11.257812 -22.28125 10.671875 -21.695312 10.265625 -20.90625 L 6.4375 -10.328125 C 6.84375 -10.492188 7.320312 -10.617188 7.875 -10.703125 C 8.425781 -10.796875 8.957031 -10.84375 9.46875 -10.84375 C 10.53125 -10.820312 11.484375 -10.625 12.328125 -10.25 C 13.179688 -9.875 13.894531 -9.410156 14.46875 -8.859375 C 14.59375 -9.222656 14.679688 -9.550781 14.734375 -9.84375 C 14.796875 -10.144531 14.828125 -10.429688 14.828125 -10.703125 C 14.828125 -11.816406 14.410156 -12.46875 13.578125 -12.65625 C 13.253906 -12.53125 12.835938 -12.46875 12.328125 -12.46875 C 11.734375 -12.46875 11.125 -12.617188 10.5 -12.921875 C 9.875 -13.234375 9.421875 -13.8125 9.140625 -14.65625 C 9.078125 -14.957031 9.046875 -15.242188 9.046875 -15.515625 C 9.046875 -16.265625 9.242188 -16.929688 9.640625 -17.515625 C 10.035156 -18.097656 10.488281 -18.492188 11 -18.703125 Z M 9.109375 -3.671875 C 9.691406 -3.671875 10.300781 -3.800781 10.9375 -4.0625 C 11.570312 -4.332031 12.132812 -4.734375 12.625 -5.265625 C 12.195312 -5.679688 11.753906 -6.046875 11.296875 -6.359375 C 10.835938 -6.671875 10.28125 -6.828125 9.625 -6.828125 C 9.03125 -6.828125 8.53125 -6.695312 8.125 -6.4375 C 7.71875 -6.1875 7.453125 -5.847656 7.328125 -5.421875 C 7.304688 -5.335938 7.289062 -5.253906 7.28125 -5.171875 C 7.269531 -5.097656 7.265625 -5.019531 7.265625 -4.9375 C 7.265625 -4.582031 7.421875 -4.28125 7.734375 -4.03125 C 8.054688 -3.789062 8.515625 -3.671875 9.109375 -3.671875 Z M 9.109375 -3.671875 "/></g></g></g><g fill="#000000" fill-opacity="1"><g transform="translate(92.706517, 48.76138)"><g><path d="M 18.265625 -9.25 C 18.429688 -9.757812 18.707031 -10.128906 19.09375 -10.359375 C 19.476562 -10.585938 19.867188 -10.703125 20.265625 -10.703125 C 20.753906 -10.703125 21.203125 -10.554688 21.609375 -10.265625 C 22.015625 -9.984375 22.21875 -9.585938 22.21875 -9.078125 C 22.21875 -8.890625 22.1875 -8.703125 22.125 -8.515625 C 21.375 -6.304688 20.507812 -4.582031 19.53125 -3.34375 C 18.5625 -2.113281 17.546875 -1.25 16.484375 -0.75 C 15.421875 -0.25 14.378906 0 13.359375 0 C 12.398438 0 11.515625 -0.191406 10.703125 -0.578125 C 9.898438 -0.972656 9.265625 -1.515625 8.796875 -2.203125 C 8.203125 -1.566406 7.535156 -1.039062 6.796875 -0.625 C 6.066406 -0.207031 5.222656 0 4.265625 0 C 3.378906 0 2.570312 -0.175781 1.84375 -0.53125 C 1.125 -0.894531 0.550781 -1.40625 0.125 -2.0625 C -0.300781 -2.726562 -0.515625 -3.484375 -0.515625 -4.328125 C -0.515625 -4.878906 -0.414062 -5.445312 -0.21875 -6.03125 L 3.5 -16.890625 C 3.738281 -17.523438 4.066406 -17.984375 4.484375 -18.265625 C 4.910156 -18.554688 5.347656 -18.703125 5.796875 -18.703125 C 6.390625 -18.703125 6.925781 -18.5 7.40625 -18.09375 C 7.882812 -17.695312 8.125 -17.171875 8.125 -16.515625 C 8.125 -16.210938 8.0625 -15.878906 7.9375 -15.515625 L 4.46875 -5.578125 C 4.351562 -5.210938 4.296875 -4.882812 4.296875 -4.59375 C 4.296875 -4.0625 4.539062 -3.796875 5.03125 -3.796875 C 5.675781 -3.796875 6.316406 -4.117188 6.953125 -4.765625 C 7.585938 -5.410156 8.128906 -6.171875 8.578125 -7.046875 L 12.078125 -16.828125 C 12.316406 -17.503906 12.648438 -17.984375 13.078125 -18.265625 C 13.515625 -18.554688 13.96875 -18.703125 14.4375 -18.703125 C 15.007812 -18.703125 15.53125 -18.503906 16 -18.109375 C 16.46875 -17.722656 16.703125 -17.210938 16.703125 -16.578125 C 16.703125 -16.429688 16.691406 -16.285156 16.671875 -16.140625 C 16.648438 -16.003906 16.609375 -15.851562 16.546875 -15.6875 L 12.75 -5.03125 C 12.6875 -4.882812 12.65625 -4.726562 12.65625 -4.5625 C 12.65625 -4.34375 12.742188 -4.160156 12.921875 -4.015625 C 13.109375 -3.867188 13.335938 -3.796875 13.609375 -3.796875 C 14.347656 -3.796875 15.128906 -4.222656 15.953125 -5.078125 C 16.773438 -5.941406 17.546875 -7.332031 18.265625 -9.25 Z M 18.265625 -9.25 "/></g></g></g><g fill="#000000" fill-opacity="1"><g transform="translate(109.886883, 48.76138)"><g><path d="M 16.921875 -9.015625 C 17.097656 -9.484375 17.359375 -9.816406 17.703125 -10.015625 C 18.054688 -10.222656 18.425781 -10.328125 18.8125 -10.328125 C 19.320312 -10.328125 19.789062 -10.175781 20.21875 -9.875 C 20.65625 -9.582031 20.875 -9.203125 20.875 -8.734375 C 20.875 -8.671875 20.875 -8.601562 20.875 -8.53125 C 20.875 -8.457031 20.851562 -8.382812 20.8125 -8.3125 C 20.070312 -6.164062 19.050781 -4.472656 17.75 -3.234375 C 16.457031 -1.992188 14.984375 -1.109375 13.328125 -0.578125 C 11.671875 -0.046875 9.914062 0.21875 8.0625 0.21875 C 6.195312 0.21875 4.609375 -0.0234375 3.296875 -0.515625 C 1.992188 -1.003906 1 -1.664062 0.3125 -2.5 C -0.363281 -3.34375 -0.703125 -4.285156 -0.703125 -5.328125 C -0.703125 -6.003906 -0.582031 -6.691406 -0.34375 -7.390625 C -0.113281 -8.097656 0.238281 -8.722656 0.71875 -9.265625 C 1.195312 -9.804688 1.785156 -10.160156 2.484375 -10.328125 C 3.117188 -11.515625 3.765625 -12.71875 4.421875 -13.9375 C 5.085938 -15.164062 5.726562 -16.382812 6.34375 -17.59375 C 6.644531 -18.207031 7.078125 -18.664062 7.640625 -18.96875 C 8.203125 -19.28125 8.78125 -19.4375 9.375 -19.4375 C 10.175781 -19.4375 10.816406 -19.164062 11.296875 -18.625 C 11.773438 -18.082031 12.015625 -17.472656 12.015625 -16.796875 C 12.015625 -16.328125 11.859375 -15.863281 11.546875 -15.40625 C 11.242188 -14.945312 10.867188 -14.625 10.421875 -14.4375 C 10.484375 -13.945312 10.648438 -13.4375 10.921875 -12.90625 C 11.203125 -12.375 11.503906 -11.832031 11.828125 -11.28125 C 12.273438 -10.539062 12.695312 -9.738281 13.09375 -8.875 C 13.5 -8.019531 13.703125 -7.125 13.703125 -6.1875 C 13.703125 -5.96875 13.691406 -5.765625 13.671875 -5.578125 C 13.648438 -5.390625 13.617188 -5.1875 13.578125 -4.96875 C 14.316406 -5.394531 14.960938 -5.941406 15.515625 -6.609375 C 16.078125 -7.285156 16.546875 -8.085938 16.921875 -9.015625 Z M 6.828125 -9.875 C 7.097656 -9.601562 7.296875 -9.289062 7.421875 -8.9375 C 7.554688 -8.59375 7.625 -8.238281 7.625 -7.875 C 7.625 -7.082031 7.367188 -6.363281 6.859375 -5.71875 C 6.347656 -5.070312 5.625 -4.75 4.6875 -4.75 C 4.582031 -4.75 4.460938 -4.753906 4.328125 -4.765625 C 4.203125 -4.773438 4.078125 -4.789062 3.953125 -4.8125 C 4.117188 -4.40625 4.425781 -4.082031 4.875 -3.84375 C 5.320312 -3.613281 5.8125 -3.5 6.34375 -3.5 C 7.195312 -3.539062 7.820312 -3.832031 8.21875 -4.375 C 8.625 -4.925781 8.828125 -5.570312 8.828125 -6.3125 C 8.828125 -7.050781 8.660156 -7.785156 8.328125 -8.515625 C 8.003906 -9.253906 7.597656 -9.910156 7.109375 -10.484375 Z M 6.828125 -9.875 "/></g></g></g><g fill="#000000" fill-opacity="1"><g transform="translate(125.792264, 48.76138)"><g><path d="M 15.421875 -9.46875 C 15.597656 -9.9375 15.859375 -10.269531 16.203125 -10.46875 C 16.554688 -10.675781 16.9375 -10.78125 17.34375 -10.78125 C 17.832031 -10.78125 18.28125 -10.628906 18.6875 -10.328125 C 19.101562 -10.023438 19.3125 -9.617188 19.3125 -9.109375 C 19.3125 -8.878906 19.269531 -8.671875 19.1875 -8.484375 C 18.507812 -6.546875 17.570312 -4.945312 16.375 -3.6875 C 15.1875 -2.4375 13.847656 -1.507812 12.359375 -0.90625 C 10.878906 -0.300781 9.351562 0 7.78125 0 C 6.226562 0 4.851562 -0.269531 3.65625 -0.8125 C 2.46875 -1.351562 1.546875 -2.101562 0.890625 -3.0625 C 0.234375 -4.019531 -0.09375 -5.101562 -0.09375 -6.3125 C -0.09375 -7.03125 0.03125 -7.773438 0.28125 -8.546875 L 2.109375 -13.890625 C 2.484375 -15.023438 3.007812 -15.941406 3.6875 -16.640625 C 4.375 -17.335938 5.132812 -17.851562 5.96875 -18.1875 C 6.8125 -18.53125 7.648438 -18.703125 8.484375 -18.703125 C 9.390625 -18.703125 10.238281 -18.515625 11.03125 -18.140625 C 11.832031 -17.773438 12.476562 -17.238281 12.96875 -16.53125 C 13.457031 -15.832031 13.703125 -14.988281 13.703125 -14 C 13.703125 -13.632812 13.671875 -13.253906 13.609375 -12.859375 C 13.546875 -12.460938 13.429688 -12.054688 13.265625 -11.640625 C 12.984375 -10.910156 12.613281 -10.382812 12.15625 -10.0625 C 11.695312 -9.75 11.238281 -9.59375 10.78125 -9.59375 C 10.21875 -9.59375 9.710938 -9.78125 9.265625 -10.15625 C 8.828125 -10.539062 8.609375 -11.015625 8.609375 -11.578125 C 8.609375 -11.867188 8.691406 -12.1875 8.859375 -12.53125 C 9.097656 -13 9.21875 -13.390625 9.21875 -13.703125 C 9.21875 -13.984375 9.132812 -14.207031 8.96875 -14.375 C 8.8125 -14.539062 8.570312 -14.625 8.25 -14.625 C 8 -14.625 7.734375 -14.515625 7.453125 -14.296875 C 7.179688 -14.078125 6.972656 -13.773438 6.828125 -13.390625 L 4.875 -7.875 C 4.75 -7.46875 4.6875 -7.082031 4.6875 -6.71875 C 4.6875 -5.914062 5.007812 -5.234375 5.65625 -4.671875 C 6.300781 -4.109375 7.175781 -3.828125 8.28125 -3.828125 C 9.09375 -3.828125 9.941406 -4.007812 10.828125 -4.375 C 11.722656 -4.75 12.578125 -5.347656 13.390625 -6.171875 C 14.210938 -7.003906 14.890625 -8.101562 15.421875 -9.46875 Z M 15.421875 -9.46875 "/></g></g></g><g fill="#000000" fill-opacity="1"><g transform="translate(140.040169, 48.76138)"><g><path d="M 19.984375 -10.78125 C 20.453125 -10.78125 20.859375 -10.640625 21.203125 -10.359375 C 21.554688 -10.078125 21.734375 -9.660156 21.734375 -9.109375 C 21.734375 -8.835938 21.660156 -8.488281 21.515625 -8.0625 C 21.367188 -7.632812 21.175781 -7.113281 20.9375 -6.5 C 20.257812 -4.78125 19.445312 -3.453125 18.5 -2.515625 C 17.550781 -1.578125 16.570312 -0.921875 15.5625 -0.546875 C 14.5625 -0.179688 13.613281 0 12.71875 0 C 12.394531 0 11.960938 -0.0390625 11.421875 -0.125 C 10.878906 -0.207031 10.335938 -0.367188 9.796875 -0.609375 C 9.253906 -0.859375 8.816406 -1.226562 8.484375 -1.71875 C 7.890625 -1.1875 7.222656 -0.765625 6.484375 -0.453125 C 5.753906 -0.148438 5.015625 0 4.265625 0 C 3.335938 0 2.5 -0.21875 1.75 -0.65625 C 1.007812 -1.09375 0.421875 -1.675781 -0.015625 -2.40625 C -0.453125 -3.132812 -0.671875 -3.9375 -0.671875 -4.8125 C -0.671875 -5.113281 -0.640625 -5.40625 -0.578125 -5.6875 C -0.515625 -5.976562 -0.4375 -6.257812 -0.34375 -6.53125 L 2.640625 -15.109375 C 3.066406 -16.335938 3.789062 -17.242188 4.8125 -17.828125 C 5.832031 -18.410156 6.863281 -18.703125 7.90625 -18.703125 C 8.707031 -18.703125 9.410156 -18.609375 10.015625 -18.421875 C 10.628906 -18.234375 11.101562 -18.03125 11.4375 -17.8125 C 11.695312 -18.21875 12.035156 -18.519531 12.453125 -18.71875 C 12.878906 -18.925781 13.316406 -19.03125 13.765625 -19.03125 C 14.359375 -19.03125 14.894531 -18.847656 15.375 -18.484375 C 15.851562 -18.128906 16.09375 -17.597656 16.09375 -16.890625 C 16.09375 -16.578125 16.03125 -16.226562 15.90625 -15.84375 L 12.328125 -5.515625 C 12.222656 -5.128906 12.171875 -4.820312 12.171875 -4.59375 C 12.171875 -4.0625 12.457031 -3.796875 13.03125 -3.796875 C 13.519531 -3.796875 14.046875 -3.957031 14.609375 -4.28125 C 15.171875 -4.613281 15.726562 -5.160156 16.28125 -5.921875 C 16.832031 -6.691406 17.3125 -7.722656 17.71875 -9.015625 C 17.914062 -9.628906 18.226562 -10.078125 18.65625 -10.359375 C 19.09375 -10.640625 19.535156 -10.78125 19.984375 -10.78125 Z M 9.46875 -11.09375 C 9.71875 -11.894531 9.84375 -12.519531 9.84375 -12.96875 C 9.84375 -13.519531 9.703125 -13.9375 9.421875 -14.21875 C 9.148438 -14.507812 8.867188 -14.65625 8.578125 -14.65625 C 8.316406 -14.65625 7.988281 -14.53125 7.59375 -14.28125 C 7.207031 -14.039062 6.863281 -13.4375 6.5625 -12.46875 L 4.53125 -6.0625 C 4.488281 -5.90625 4.441406 -5.738281 4.390625 -5.5625 C 4.347656 -5.382812 4.328125 -5.1875 4.328125 -4.96875 C 4.328125 -4.1875 4.679688 -3.796875 5.390625 -3.796875 C 5.722656 -3.796875 6.144531 -3.957031 6.65625 -4.28125 C 7.164062 -4.613281 7.59375 -5.300781 7.9375 -6.34375 Z M 9.46875 -11.09375 "/></g></g></g></svg>