<svg xmlns="http://www.w3.org/2000/svg" xmlns:xlink="http://www.w3.org/1999/xlink" width="1080" zoomAndPan="magnify" viewBox="0 0 810 1012.49997" height="1350" preserveAspectRatio="xMidYMid meet" version="1.0"><defs><g/><clipPath id="ada78f7649"><path d="M 446.191406 12.265625 L 516 12.265625 L 516 93 L 446.191406 93 Z M 446.191406 12.265625 " clip-rule="nonzero"/></clipPath><clipPath id="7266f15e15"><path d="M 497 35 L 564.898438 35 L 564.898438 108.574219 L 497 108.574219 Z M 497 35 " clip-rule="nonzero"/></clipPath><clipPath id="beeffee67e"><rect x="0" width="568" y="0" height="118"/></clipPath></defs><g transform="matrix(1, 0, 0, 1, 120, 446)"><g clip-path="url(#beeffee67e)"><g clip-path="url(#ada78f7649)"><path fill="#231f20" d="M 505.402344 12.628906 C 506.8125 12.292969 508.535156 12.796875 509.28125 14.085938 C 509.820312 15.019531 509.960938 16.121094 510.3125 17.140625 C 513.09375 25.769531 514.882812 34.761719 515.132812 43.84375 C 515.476562 53.089844 514.429688 62.503906 511.117188 71.171875 C 508.761719 77.378906 505.117188 83.214844 500 87.460938 C 497.148438 89.828125 493.734375 91.640625 490.027344 92.058594 C 486.652344 92.394531 483.261719 91.683594 480.109375 90.496094 C 476.601562 89.042969 473.226562 87.199219 470.324219 84.714844 C 464.988281 80.386719 460.65625 74.890625 457.242188 68.910156 C 454.757812 64.5 452.695312 59.839844 451.136719 55.007812 C 448.371094 46.859375 446.878906 38.304688 446.292969 29.71875 C 446.242188 28.953125 446.191406 28.160156 446.21875 27.382812 C 446.339844 25.511719 448.210938 24.035156 450.03125 24.203125 C 450.550781 24.246094 451.0625 24.355469 451.578125 24.4375 C 460.230469 25.960938 469.160156 26.117188 477.800781 24.445312 C 486.761719 22.707031 495.265625 18.941406 502.914062 13.957031 C 503.722656 13.476562 504.472656 12.855469 505.402344 12.628906 Z M 495.382812 35.859375 C 492.800781 36.453125 490.53125 38.28125 489.414062 40.710938 C 488.609375 42.453125 488.1875 44.535156 488.832031 46.394531 C 491.03125 44.367188 493.625 42.746094 496.488281 41.902344 C 500.085938 40.828125 504.023438 40.746094 507.59375 41.980469 C 506.6875 40.207031 505.230469 38.765625 503.625 37.628906 C 501.285156 35.925781 498.214844 35.175781 495.382812 35.859375 Z M 462.640625 44.199219 C 460.132812 46.273438 458.648438 49.511719 458.601562 52.777344 C 458.671875 52.730469 458.808594 52.640625 458.871094 52.59375 C 463.679688 48.054688 471.03125 46.699219 477.195312 48.886719 C 477.160156 47.710938 476.601562 46.632812 475.929688 45.710938 C 474.363281 43.550781 471.824219 42.167969 469.1875 42.023438 C 466.832031 41.84375 464.433594 42.65625 462.640625 44.199219 Z M 501.027344 59.875 C 498.839844 61.777344 496.550781 63.585938 493.972656 64.917969 C 491.226562 66.292969 488.3125 67.414062 485.261719 67.828125 C 480.589844 68.628906 475.75 68.125 471.265625 66.632812 C 470.859375 66.476562 470.402344 66.4375 470.078125 66.847656 C 469.8125 67.183594 469.996094 67.542969 470.140625 67.855469 C 472.613281 72.425781 477 75.878906 481.988281 77.160156 C 484.355469 77.808594 486.882812 77.921875 489.277344 77.339844 C 492.386719 76.574219 495.242188 74.800781 497.320312 72.328125 C 499.890625 69.421875 501.445312 65.691406 502.09375 61.875 C 502.164062 61.316406 502.382812 60.722656 502.179688 60.195312 C 502.027344 59.792969 501.394531 59.558594 501.027344 59.875 Z M 501.027344 59.875 " fill-opacity="1" fill-rule="nonzero"/></g><g clip-path="url(#7266f15e15)"><path fill="#231f20" d="M 517.625 35.0625 C 525.449219 39.472656 534.09375 42.351562 542.953125 43.617188 C 548.21875 44.390625 553.550781 44.601562 558.863281 44.355469 C 560.183594 44.335938 561.632812 44.152344 562.816406 44.882812 C 564.097656 45.621094 564.894531 47.207031 564.578125 48.6875 C 563.71875 53.113281 562.6875 57.515625 561.296875 61.808594 C 560.160156 65.597656 558.667969 69.257812 557.078125 72.875 C 554.230469 79.210938 550.726562 85.265625 546.414062 90.699219 C 541.976562 96.261719 536.5 100.992188 530.277344 104.390625 C 527.125 106.054688 523.75 107.304688 520.238281 107.863281 C 516.292969 108.546875 512.070312 108.042969 508.546875 106.070312 C 503.464844 103.21875 499.855469 98.347656 497.171875 93.246094 C 499.671875 91.910156 502.007812 90.253906 504.035156 88.257812 C 504.761719 87.558594 505.457031 86.8125 506.160156 86.089844 C 507.695312 88.433594 509.554688 90.609375 511.863281 92.203125 C 514.894531 94.277344 518.679688 95.171875 522.308594 94.738281 C 527.707031 94.175781 532.632812 90.832031 535.550781 86.257812 C 535.820312 85.898438 535.914062 85.308594 535.492188 85.058594 C 535.042969 84.789062 534.484375 85.035156 534 85.082031 C 529.113281 85.871094 524.074219 85.890625 519.242188 84.738281 C 515.945312 84.003906 512.871094 82.507812 509.910156 80.910156 C 510.839844 79.222656 511.859375 77.585938 512.65625 75.832031 C 514.960938 70.777344 516.464844 65.367188 517.390625 59.886719 C 518.039062 60.644531 518.621094 61.484375 519.414062 62.101562 C 520.25 59.917969 519.882812 57.453125 518.941406 55.378906 C 518.722656 54.828125 518.1875 54.359375 518.273438 53.726562 C 518.65625 47.503906 518.550781 41.238281 517.625 35.0625 Z M 534.023438 61.304688 C 532.496094 62.375 531.300781 63.988281 530.945312 65.859375 C 535.671875 64.75 540.824219 65.480469 545.050781 67.898438 C 546.675781 68.816406 548.070312 70.082031 549.378906 71.398438 C 549.707031 66.359375 546.148438 61.339844 541.296875 60.097656 C 538.851562 59.4375 536.125 59.875 534.023438 61.304688 Z M 534.023438 61.304688 " fill-opacity="1" fill-rule="nonzero"/></g><g fill="#000000" fill-opacity="1"><g transform="translate(4.692731, 103.673999)"><g><path d="M 50.25 -28.671875 C 50.570312 -30.128906 51.273438 -31.175781 52.359375 -31.8125 C 53.441406 -32.445312 54.585938 -32.765625 55.796875 -32.765625 C 57.265625 -32.765625 58.617188 -32.300781 59.859375 -31.375 C 61.097656 -30.457031 61.71875 -29.171875 61.71875 -27.515625 C 61.71875 -26.941406 61.625 -26.273438 61.4375 -25.515625 C 59.96875 -20.859375 57.910156 -16.890625 55.265625 -13.609375 C 52.628906 -10.328125 49.65625 -7.695312 46.34375 -5.71875 C 43.03125 -3.75 39.585938 -2.300781 36.015625 -1.375 C 32.453125 -0.457031 29.015625 0 25.703125 0 C 20.160156 0 15.269531 -1 11.03125 -3 C 6.800781 -5.007812 3.503906 -7.734375 1.140625 -11.171875 C -1.210938 -14.617188 -2.390625 -18.410156 -2.390625 -22.546875 C -2.390625 -25.546875 -1.847656 -28.570312 -0.765625 -31.625 L 11.171875 -65.734375 C 12.453125 -69.304688 14.015625 -72.222656 15.859375 -74.484375 C 17.703125 -76.742188 19.707031 -78.476562 21.875 -79.6875 C 24.039062 -80.894531 26.175781 -81.738281 28.28125 -82.21875 C 30.382812 -82.695312 32.296875 -82.9375 34.015625 -82.9375 C 37.640625 -82.9375 40.898438 -82.28125 43.796875 -80.96875 C 46.703125 -79.664062 49 -77.769531 50.6875 -75.28125 C 52.375 -72.800781 53.21875 -69.8125 53.21875 -66.3125 C 53.21875 -65.289062 53.132812 -64.222656 52.96875 -63.109375 C 52.8125 -61.992188 52.578125 -60.800781 52.265625 -59.53125 C 51.429688 -56.40625 50.171875 -54.1875 48.484375 -52.875 C 46.796875 -51.570312 45.125 -50.921875 43.46875 -50.921875 C 41.625 -50.921875 40 -51.523438 38.59375 -52.734375 C 37.195312 -53.953125 36.5 -55.390625 36.5 -57.046875 C 36.5 -57.804688 36.625 -58.472656 36.875 -59.046875 C 37.644531 -60.960938 38.03125 -62.617188 38.03125 -64.015625 C 38.03125 -65.484375 37.675781 -66.550781 36.96875 -67.21875 C 36.269531 -67.882812 35.378906 -68.21875 34.296875 -68.21875 C 33.535156 -68.21875 32.644531 -68.039062 31.625 -67.6875 C 30.601562 -67.34375 29.566406 -66.660156 28.515625 -65.640625 C 27.460938 -64.617188 26.554688 -63.054688 25.796875 -60.953125 L 13.765625 -27.421875 C 13.503906 -26.597656 13.3125 -25.785156 13.1875 -24.984375 C 13.0625 -24.191406 13 -23.441406 13 -22.734375 C 13 -20.640625 13.726562 -18.78125 15.1875 -17.15625 C 16.65625 -15.53125 18.535156 -14.253906 20.828125 -13.328125 C 23.117188 -12.398438 25.507812 -11.9375 28 -11.9375 C 30.539062 -11.9375 33.242188 -12.492188 36.109375 -13.609375 C 38.984375 -14.722656 41.691406 -16.503906 44.234375 -18.953125 C 46.785156 -21.410156 48.789062 -24.648438 50.25 -28.671875 Z M 50.25 -28.671875 "/></g></g></g><g fill="#000000" fill-opacity="1"><g transform="translate(51.41005, 103.673999)"><g><path d="M 25.703125 -64.875 C 23.535156 -64.875 21.6875 -65.65625 20.15625 -67.21875 C 18.632812 -68.78125 17.875 -70.644531 17.875 -72.8125 C 17.875 -74.976562 18.632812 -76.804688 20.15625 -78.296875 C 21.6875 -79.796875 23.535156 -80.546875 25.703125 -80.546875 C 27.867188 -80.546875 29.710938 -79.796875 31.234375 -78.296875 C 32.765625 -76.804688 33.53125 -74.976562 33.53125 -72.8125 C 33.53125 -70.644531 32.765625 -68.78125 31.234375 -67.21875 C 29.710938 -65.65625 27.867188 -64.875 25.703125 -64.875 Z M 12.796875 -16.140625 C 12.609375 -15.566406 12.515625 -15.0625 12.515625 -14.625 C 12.515625 -13.726562 12.847656 -12.960938 13.515625 -12.328125 C 14.179688 -11.691406 15.054688 -11.375 16.140625 -11.375 C 18.054688 -11.375 20.207031 -12.550781 22.59375 -14.90625 C 24.988281 -17.257812 27.300781 -21.523438 29.53125 -27.703125 C 30.101562 -29.171875 30.976562 -30.253906 32.15625 -30.953125 C 33.332031 -31.660156 34.554688 -32.015625 35.828125 -32.015625 C 37.296875 -32.015625 38.617188 -31.582031 39.796875 -30.71875 C 40.972656 -29.851562 41.5625 -28.691406 41.5625 -27.234375 C 41.5625 -26.660156 41.46875 -26.085938 41.28125 -25.515625 C 39.050781 -18.953125 36.484375 -13.804688 33.578125 -10.078125 C 30.679688 -6.347656 27.625 -3.734375 24.40625 -2.234375 C 21.195312 -0.742188 18.03125 0 14.90625 0 C 11.976562 0 9.285156 -0.554688 6.828125 -1.671875 C 4.378906 -2.785156 2.40625 -4.394531 0.90625 -6.5 C -0.59375 -8.601562 -1.34375 -11.148438 -1.34375 -14.140625 C -1.34375 -14.972656 -1.179688 -15.960938 -0.859375 -17.109375 C -0.535156 -18.253906 -0.25 -19.300781 0 -20.25 C 1.019531 -23.25 2.117188 -26.4375 3.296875 -29.8125 C 4.472656 -33.1875 5.648438 -36.5625 6.828125 -39.9375 C 8.003906 -43.3125 9.101562 -46.5 10.125 -49.5 C 10.894531 -51.726562 11.992188 -53.382812 13.421875 -54.46875 C 14.859375 -55.550781 16.304688 -56.09375 17.765625 -56.09375 C 19.421875 -56.09375 20.898438 -55.550781 22.203125 -54.46875 C 23.515625 -53.382812 24.171875 -51.789062 24.171875 -49.6875 C 24.171875 -49.238281 24.070312 -48.695312 23.875 -48.0625 C 23.6875 -47.425781 23.5 -46.789062 23.3125 -46.15625 Z M 12.796875 -16.140625 "/></g></g></g><g fill="#000000" fill-opacity="1"><g transform="translate(77.7781, 103.673999)"><g><path d="M 53.3125 -27.515625 C 53.820312 -29.109375 54.695312 -30.269531 55.9375 -31 C 57.1875 -31.738281 58.445312 -32.109375 59.71875 -32.109375 C 61.1875 -32.109375 62.492188 -31.707031 63.640625 -30.90625 C 64.785156 -30.113281 65.359375 -28.953125 65.359375 -27.421875 C 65.359375 -26.785156 65.195312 -26.050781 64.875 -25.21875 C 62.707031 -19.039062 60.160156 -14.101562 57.234375 -10.40625 C 54.304688 -6.71875 51.203125 -4.0625 47.921875 -2.4375 C 44.640625 -0.8125 41.375 0 38.125 0 C 35.445312 0 32.929688 -0.507812 30.578125 -1.53125 C 28.222656 -2.550781 26.328125 -4.0625 24.890625 -6.0625 C 23.453125 -8.070312 22.734375 -10.539062 22.734375 -13.46875 C 22.734375 -14.488281 22.84375 -15.523438 23.0625 -16.578125 C 23.289062 -17.628906 23.597656 -18.695312 23.984375 -19.78125 L 30.953125 -39.453125 C 31.273438 -40.410156 31.4375 -41.207031 31.4375 -41.84375 C 31.4375 -42.738281 31.164062 -43.457031 30.625 -44 C 30.082031 -44.539062 29.363281 -44.8125 28.46875 -44.8125 C 27.132812 -44.8125 25.6875 -44.238281 24.125 -43.09375 C 22.5625 -41.945312 21.144531 -40.160156 19.875 -37.734375 C 18.789062 -34.679688 17.59375 -31.289062 16.28125 -27.5625 C 14.976562 -23.832031 13.675781 -20.117188 12.375 -16.421875 C 11.070312 -12.734375 9.84375 -9.328125 8.6875 -6.203125 C 7.988281 -4.046875 6.796875 -2.441406 5.109375 -1.390625 C 3.421875 -0.335938 1.75 0.1875 0.09375 0.1875 C -1.4375 0.1875 -2.789062 -0.253906 -3.96875 -1.140625 C -5.144531 -2.035156 -5.734375 -3.375 -5.734375 -5.15625 C -5.734375 -5.988281 -5.601562 -6.785156 -5.34375 -7.546875 L 10.609375 -52.171875 C 11.117188 -53.503906 11.945312 -54.488281 13.09375 -55.125 C 14.238281 -55.769531 15.476562 -56.09375 16.8125 -56.09375 C 18.09375 -56.09375 19.269531 -55.867188 20.34375 -55.421875 C 21.425781 -54.972656 22.097656 -54.300781 22.359375 -53.40625 C 24.773438 -55.195312 27.832031 -56.09375 31.53125 -56.09375 C 34.082031 -56.09375 36.421875 -55.5 38.546875 -54.3125 C 40.679688 -53.132812 42.398438 -51.539062 43.703125 -49.53125 C 45.015625 -47.53125 45.671875 -45.253906 45.671875 -42.703125 C 45.671875 -41.179688 45.320312 -39.429688 44.625 -37.453125 L 37.171875 -16.25 C 36.847656 -15.164062 36.6875 -14.367188 36.6875 -13.859375 C 36.6875 -12.203125 37.578125 -11.375 39.359375 -11.375 C 41.585938 -11.375 43.941406 -12.628906 46.421875 -15.140625 C 48.910156 -17.660156 51.207031 -21.785156 53.3125 -27.515625 Z M 53.3125 -27.515625 "/></g></g></g><g fill="#000000" fill-opacity="1"><g transform="translate(127.934749, 103.673999)"><g><path d="M 48.34375 -26.9375 C 48.789062 -28.40625 49.632812 -29.503906 50.875 -30.234375 C 52.113281 -30.972656 53.40625 -31.34375 54.75 -31.34375 C 56.21875 -31.34375 57.507812 -30.941406 58.625 -30.140625 C 59.738281 -29.347656 60.296875 -28.21875 60.296875 -26.75 C 60.296875 -26.113281 60.164062 -25.445312 59.90625 -24.75 C 57.800781 -18.695312 54.867188 -13.851562 51.109375 -10.21875 C 47.359375 -6.59375 43.21875 -3.984375 38.6875 -2.390625 C 34.164062 -0.796875 29.675781 0 25.21875 0 C 20.570312 0 16.382812 -0.742188 12.65625 -2.234375 C 8.9375 -3.734375 5.992188 -5.867188 3.828125 -8.640625 C 1.660156 -11.410156 0.578125 -14.675781 0.578125 -18.4375 C 0.578125 -19.519531 0.6875 -20.632812 0.90625 -21.78125 C 1.125 -22.925781 1.425781 -24.070312 1.8125 -25.21875 L 7.453125 -41.5625 C 9.109375 -46.34375 11.816406 -49.957031 15.578125 -52.40625 C 19.335938 -54.863281 23.347656 -56.09375 27.609375 -56.09375 C 31.242188 -56.09375 34.394531 -55.390625 37.0625 -53.984375 C 39.738281 -52.578125 41.828125 -50.664062 43.328125 -48.25 C 44.828125 -45.832031 45.578125 -43.09375 45.578125 -40.03125 C 45.578125 -38.4375 45.320312 -36.6875 44.8125 -34.78125 C 43.539062 -30.507812 41.148438 -27.097656 37.640625 -24.546875 C 34.140625 -22.003906 30.222656 -20.734375 25.890625 -20.734375 C 23.984375 -20.734375 22.1875 -21.003906 20.5 -21.546875 C 18.8125 -22.085938 17.265625 -22.769531 15.859375 -23.59375 L 15.09375 -21.78125 C 14.90625 -21.332031 14.78125 -20.882812 14.71875 -20.4375 C 14.65625 -20 14.625 -19.554688 14.625 -19.109375 C 14.625 -16.941406 15.640625 -15.109375 17.671875 -13.609375 C 19.710938 -12.117188 22.484375 -11.375 25.984375 -11.375 C 28.722656 -11.375 31.539062 -11.894531 34.4375 -12.9375 C 37.34375 -13.988281 40.035156 -15.660156 42.515625 -17.953125 C 45.003906 -20.253906 46.945312 -23.25 48.34375 -26.9375 Z M 27.328125 -44.8125 C 26.242188 -44.8125 25.160156 -44.394531 24.078125 -43.5625 C 22.992188 -42.738281 22.195312 -41.59375 21.6875 -40.125 L 19.6875 -34.390625 C 21.019531 -33.628906 22.675781 -33.25 24.65625 -33.25 C 26.113281 -33.25 27.476562 -33.566406 28.75 -34.203125 C 30.03125 -34.835938 30.894531 -35.953125 31.34375 -37.546875 C 31.59375 -38.242188 31.71875 -39.007812 31.71875 -39.84375 C 31.71875 -41.238281 31.316406 -42.414062 30.515625 -43.375 C 29.722656 -44.332031 28.660156 -44.8125 27.328125 -44.8125 Z M 27.328125 -44.8125 "/></g></g></g><g fill="#000000" fill-opacity="1"><g transform="translate(173.219014, 103.673999)"><g><path d="M 67.171875 -28.375 C 67.554688 -29.71875 68.269531 -30.691406 69.3125 -31.296875 C 70.363281 -31.898438 71.5 -32.203125 72.71875 -32.203125 C 74.238281 -32.203125 75.632812 -31.769531 76.90625 -30.90625 C 78.1875 -30.050781 78.828125 -28.828125 78.828125 -27.234375 C 78.828125 -27.035156 78.8125 -26.828125 78.78125 -26.609375 C 78.75 -26.390625 78.703125 -26.148438 78.640625 -25.890625 C 76.984375 -20.097656 74.050781 -15.414062 69.84375 -11.84375 C 65.632812 -8.28125 60.726562 -6.5 55.125 -6.5 C 52.957031 -6.5 50.953125 -6.785156 49.109375 -7.359375 C 46.242188 -4.429688 42.976562 -2.296875 39.3125 -0.953125 C 35.65625 0.378906 32.007812 1.046875 28.375 1.046875 C 24.613281 1.046875 21.046875 0.347656 17.671875 -1.046875 C 14.296875 -2.453125 11.78125 -4.332031 10.125 -6.6875 C 9.675781 -4.070312 8.640625 -2.144531 7.015625 -0.90625 C 5.398438 0.332031 3.765625 0.953125 2.109375 0.953125 C 0.515625 0.953125 -0.914062 0.410156 -2.1875 -0.671875 C -3.46875 -1.753906 -4.109375 -3.28125 -4.109375 -5.25 C -4.109375 -5.757812 -4.0625 -6.300781 -3.96875 -6.875 C -3.875 -7.445312 -3.695312 -8.050781 -3.4375 -8.6875 L 21.59375 -79.5 C 22.289062 -81.726562 23.4375 -83.347656 25.03125 -84.359375 C 26.625 -85.378906 28.21875 -85.890625 29.8125 -85.890625 C 31.46875 -85.890625 32.898438 -85.441406 34.109375 -84.546875 C 35.316406 -83.660156 35.921875 -82.421875 35.921875 -80.828125 C 37.773438 -81.722656 39.546875 -82.3125 41.234375 -82.59375 C 42.921875 -82.882812 44.429688 -83.03125 45.765625 -83.03125 C 46.460938 -83.03125 47.066406 -83.015625 47.578125 -82.984375 C 48.085938 -82.953125 48.566406 -82.90625 49.015625 -82.84375 C 51.816406 -82.582031 54.394531 -81.765625 56.75 -80.390625 C 59.113281 -79.023438 61.023438 -77.164062 62.484375 -74.8125 C 63.953125 -72.457031 64.6875 -69.65625 64.6875 -66.40625 C 64.6875 -63.988281 64.222656 -61.503906 63.296875 -58.953125 C 62.378906 -56.398438 61.125 -54.023438 59.53125 -51.828125 C 57.9375 -49.628906 56.054688 -47.800781 53.890625 -46.34375 C 55.929688 -44.175781 57.378906 -41.832031 58.234375 -39.3125 C 59.097656 -36.800781 59.53125 -34.269531 59.53125 -31.71875 C 59.53125 -29.300781 59.207031 -26.960938 58.5625 -24.703125 C 57.925781 -22.441406 57.066406 -20.382812 55.984375 -18.53125 L 56.09375 -18.53125 C 58.695312 -18.53125 60.9375 -19.4375 62.8125 -21.25 C 64.695312 -23.070312 66.148438 -25.445312 67.171875 -28.375 Z M 32.96875 -56.09375 C 34.050781 -56.53125 35.257812 -56.75 36.59375 -56.75 C 38 -56.75 39.289062 -56.554688 40.46875 -56.171875 C 41.644531 -55.796875 42.457031 -55.414062 42.90625 -55.03125 C 45.195312 -55.988281 46.753906 -57.421875 47.578125 -59.328125 C 48.410156 -61.242188 48.828125 -62.898438 48.828125 -64.296875 C 48.828125 -65.953125 48.21875 -67.257812 47 -68.21875 C 45.789062 -69.175781 44.328125 -69.65625 42.609375 -69.65625 C 40.578125 -69.65625 38.394531 -69.082031 36.0625 -67.9375 C 33.738281 -66.789062 31.972656 -65.035156 30.765625 -62.671875 L 19.296875 -30.953125 C 20.503906 -31.460938 21.9375 -31.84375 23.59375 -32.09375 C 25.25 -32.351562 26.84375 -32.484375 28.375 -32.484375 C 31.5625 -32.421875 34.425781 -31.832031 36.96875 -30.71875 C 39.519531 -29.601562 41.65625 -28.21875 43.375 -26.5625 C 43.757812 -27.644531 44.03125 -28.628906 44.1875 -29.515625 C 44.34375 -30.410156 44.421875 -31.273438 44.421875 -32.109375 C 44.421875 -35.421875 43.179688 -37.363281 40.703125 -37.9375 C 39.742188 -37.550781 38.503906 -37.359375 36.984375 -37.359375 C 35.191406 -37.359375 33.359375 -37.816406 31.484375 -38.734375 C 29.609375 -39.660156 28.253906 -41.398438 27.421875 -43.953125 C 27.234375 -44.847656 27.140625 -45.707031 27.140625 -46.53125 C 27.140625 -48.757812 27.726562 -50.75 28.90625 -52.5 C 30.082031 -54.25 31.4375 -55.445312 32.96875 -56.09375 Z M 27.328125 -10.984375 C 29.046875 -10.984375 30.859375 -11.378906 32.765625 -12.171875 C 34.679688 -12.972656 36.375 -14.171875 37.84375 -15.765625 C 36.5625 -17.035156 35.234375 -18.132812 33.859375 -19.0625 C 32.492188 -19.988281 30.828125 -20.453125 28.859375 -20.453125 C 27.078125 -20.453125 25.578125 -20.066406 24.359375 -19.296875 C 23.148438 -18.535156 22.351562 -17.519531 21.96875 -16.25 C 21.90625 -15.988281 21.859375 -15.742188 21.828125 -15.515625 C 21.796875 -15.296875 21.78125 -15.0625 21.78125 -14.8125 C 21.78125 -13.726562 22.257812 -12.816406 23.21875 -12.078125 C 24.175781 -11.347656 25.546875 -10.984375 27.328125 -10.984375 Z M 27.328125 -10.984375 "/></g></g></g><g fill="#000000" fill-opacity="1"><g transform="translate(236.94183, 103.673999)"><g><path d="M 54.75 -27.703125 C 55.257812 -29.234375 56.085938 -30.347656 57.234375 -31.046875 C 58.378906 -31.753906 59.554688 -32.109375 60.765625 -32.109375 C 62.234375 -32.109375 63.570312 -31.675781 64.78125 -30.8125 C 65.988281 -29.957031 66.59375 -28.765625 66.59375 -27.234375 C 66.59375 -26.660156 66.5 -26.085938 66.3125 -25.515625 C 64.082031 -18.890625 61.5 -13.726562 58.5625 -10.03125 C 55.632812 -6.332031 52.578125 -3.734375 49.390625 -2.234375 C 46.210938 -0.742188 43.09375 0 40.03125 0 C 37.164062 0 34.519531 -0.585938 32.09375 -1.765625 C 29.675781 -2.941406 27.769531 -4.550781 26.375 -6.59375 C 24.59375 -4.675781 22.601562 -3.097656 20.40625 -1.859375 C 18.207031 -0.617188 15.671875 0 12.796875 0 C 10.128906 0 7.710938 -0.539062 5.546875 -1.625 C 3.378906 -2.707031 1.65625 -4.234375 0.375 -6.203125 C -0.894531 -8.179688 -1.53125 -10.445312 -1.53125 -13 C -1.53125 -14.65625 -1.242188 -16.34375 -0.671875 -18.0625 L 10.515625 -50.640625 C 11.210938 -52.546875 12.195312 -53.929688 13.46875 -54.796875 C 14.75 -55.660156 16.054688 -56.09375 17.390625 -56.09375 C 19.171875 -56.09375 20.773438 -55.484375 22.203125 -54.265625 C 23.640625 -53.054688 24.359375 -51.46875 24.359375 -49.5 C 24.359375 -48.601562 24.171875 -47.613281 23.796875 -46.53125 L 13.375 -16.71875 C 13.0625 -15.632812 12.90625 -14.648438 12.90625 -13.765625 C 12.90625 -12.171875 13.632812 -11.375 15.09375 -11.375 C 17.007812 -11.375 18.921875 -12.34375 20.828125 -14.28125 C 22.742188 -16.226562 24.367188 -18.503906 25.703125 -21.109375 L 36.21875 -50.453125 C 36.914062 -52.484375 37.914062 -53.929688 39.21875 -54.796875 C 40.53125 -55.660156 41.882812 -56.09375 43.28125 -56.09375 C 45 -56.09375 46.554688 -55.5 47.953125 -54.3125 C 49.359375 -53.132812 50.0625 -51.59375 50.0625 -49.6875 C 50.0625 -49.238281 50.03125 -48.804688 49.96875 -48.390625 C 49.90625 -47.984375 49.78125 -47.523438 49.59375 -47.015625 L 38.21875 -15.09375 C 38.03125 -14.644531 37.9375 -14.164062 37.9375 -13.65625 C 37.9375 -13.019531 38.207031 -12.476562 38.75 -12.03125 C 39.289062 -11.59375 39.972656 -11.375 40.796875 -11.375 C 43.023438 -11.375 45.363281 -12.660156 47.8125 -15.234375 C 50.269531 -17.816406 52.582031 -21.972656 54.75 -27.703125 Z M 54.75 -27.703125 "/></g></g></g><g fill="#000000" fill-opacity="1"><g transform="translate(288.435981, 103.673999)"><g><path d="M 50.734375 -27.046875 C 51.242188 -28.441406 52.023438 -29.441406 53.078125 -30.046875 C 54.128906 -30.648438 55.226562 -30.953125 56.375 -30.953125 C 57.90625 -30.953125 59.320312 -30.503906 60.625 -29.609375 C 61.925781 -28.722656 62.578125 -27.582031 62.578125 -26.1875 C 62.578125 -25.988281 62.578125 -25.773438 62.578125 -25.546875 C 62.578125 -25.328125 62.515625 -25.125 62.390625 -24.9375 C 60.160156 -18.5 57.101562 -13.414062 53.21875 -9.6875 C 49.332031 -5.96875 44.90625 -3.3125 39.9375 -1.71875 C 34.96875 -0.125 29.710938 0.671875 24.171875 0.671875 C 18.566406 0.671875 13.804688 -0.0546875 9.890625 -1.515625 C 5.972656 -2.984375 2.992188 -4.976562 0.953125 -7.5 C -1.085938 -10.019531 -2.109375 -12.835938 -2.109375 -15.953125 C -2.109375 -17.992188 -1.753906 -20.0625 -1.046875 -22.15625 C -0.347656 -24.257812 0.710938 -26.125 2.140625 -27.75 C 3.578125 -29.375 5.347656 -30.441406 7.453125 -30.953125 C 9.359375 -34.523438 11.300781 -38.140625 13.28125 -41.796875 C 15.257812 -45.460938 17.171875 -49.109375 19.015625 -52.734375 C 19.898438 -54.585938 21.1875 -55.972656 22.875 -56.890625 C 24.570312 -57.816406 26.3125 -58.28125 28.09375 -58.28125 C 30.507812 -58.28125 32.429688 -57.46875 33.859375 -55.84375 C 35.296875 -54.21875 36.015625 -52.390625 36.015625 -50.359375 C 36.015625 -48.953125 35.550781 -47.5625 34.625 -46.1875 C 33.707031 -44.820312 32.582031 -43.851562 31.25 -43.28125 C 31.4375 -41.8125 31.941406 -40.28125 32.765625 -38.6875 C 33.597656 -37.101562 34.492188 -35.484375 35.453125 -33.828125 C 36.785156 -31.597656 38.054688 -29.191406 39.265625 -26.609375 C 40.472656 -24.023438 41.078125 -21.332031 41.078125 -18.53125 C 41.078125 -17.894531 41.046875 -17.289062 40.984375 -16.71875 C 40.921875 -16.144531 40.828125 -15.539062 40.703125 -14.90625 C 42.929688 -16.175781 44.875 -17.8125 46.53125 -19.8125 C 48.1875 -21.820312 49.585938 -24.234375 50.734375 -27.046875 Z M 20.453125 -29.625 C 21.273438 -28.789062 21.875 -27.847656 22.25 -26.796875 C 22.632812 -25.742188 22.828125 -24.675781 22.828125 -23.59375 C 22.828125 -21.238281 22.0625 -19.085938 20.53125 -17.140625 C 19.007812 -15.203125 16.847656 -14.234375 14.046875 -14.234375 C 13.722656 -14.234375 13.367188 -14.25 12.984375 -14.28125 C 12.609375 -14.3125 12.226562 -14.359375 11.84375 -14.421875 C 12.351562 -13.210938 13.273438 -12.257812 14.609375 -11.5625 C 15.953125 -10.863281 17.421875 -10.515625 19.015625 -10.515625 C 21.554688 -10.640625 23.429688 -11.515625 24.640625 -13.140625 C 25.859375 -14.765625 26.46875 -16.691406 26.46875 -18.921875 C 26.46875 -21.148438 25.972656 -23.363281 24.984375 -25.5625 C 23.992188 -27.757812 22.769531 -29.71875 21.3125 -31.4375 Z M 20.453125 -29.625 "/></g></g></g><g fill="#000000" fill-opacity="1"><g transform="translate(336.108661, 103.673999)"><g><path d="M 46.25 -28.375 C 46.757812 -29.78125 47.535156 -30.785156 48.578125 -31.390625 C 49.628906 -31.992188 50.765625 -32.296875 51.984375 -32.296875 C 53.441406 -32.296875 54.789062 -31.847656 56.03125 -30.953125 C 57.28125 -30.066406 57.90625 -28.859375 57.90625 -27.328125 C 57.90625 -26.628906 57.773438 -25.992188 57.515625 -25.421875 C 55.484375 -19.617188 52.679688 -14.835938 49.109375 -11.078125 C 45.546875 -7.328125 41.535156 -4.539062 37.078125 -2.71875 C 32.617188 -0.90625 28.03125 0 23.3125 0 C 18.664062 0 14.554688 -0.8125 10.984375 -2.4375 C 7.421875 -4.0625 4.648438 -6.304688 2.671875 -9.171875 C 0.703125 -12.035156 -0.28125 -15.285156 -0.28125 -18.921875 C -0.28125 -21.085938 0.0976562 -23.316406 0.859375 -25.609375 L 6.3125 -41.65625 C 7.457031 -45.03125 9.046875 -47.769531 11.078125 -49.875 C 13.117188 -51.976562 15.394531 -53.539062 17.90625 -54.5625 C 20.425781 -55.582031 22.929688 -56.09375 25.421875 -56.09375 C 28.160156 -56.09375 30.722656 -55.53125 33.109375 -54.40625 C 35.492188 -53.289062 37.414062 -51.679688 38.875 -49.578125 C 40.34375 -47.484375 41.078125 -44.9375 41.078125 -41.9375 C 41.078125 -40.863281 40.984375 -39.734375 40.796875 -38.546875 C 40.609375 -37.367188 40.257812 -36.144531 39.75 -34.875 C 38.914062 -32.707031 37.8125 -31.144531 36.4375 -30.1875 C 35.070312 -29.238281 33.691406 -28.765625 32.296875 -28.765625 C 30.640625 -28.765625 29.140625 -29.335938 27.796875 -30.484375 C 26.460938 -31.628906 25.796875 -33.03125 25.796875 -34.6875 C 25.796875 -35.570312 26.050781 -36.523438 26.5625 -37.546875 C 27.257812 -38.953125 27.609375 -40.128906 27.609375 -41.078125 C 27.609375 -41.910156 27.367188 -42.582031 26.890625 -43.09375 C 26.421875 -43.601562 25.707031 -43.859375 24.75 -43.859375 C 23.976562 -43.859375 23.175781 -43.519531 22.34375 -42.84375 C 21.519531 -42.175781 20.890625 -41.269531 20.453125 -40.125 L 14.625 -23.59375 C 14.238281 -22.382812 14.046875 -21.238281 14.046875 -20.15625 C 14.046875 -17.738281 15.015625 -15.6875 16.953125 -14 C 18.898438 -12.3125 21.53125 -11.46875 24.84375 -11.46875 C 27.257812 -11.46875 29.804688 -12.023438 32.484375 -13.140625 C 35.160156 -14.253906 37.722656 -16.050781 40.171875 -18.53125 C 42.628906 -21.019531 44.65625 -24.300781 46.25 -28.375 Z M 46.25 -28.375 "/></g></g></g><g fill="#000000" fill-opacity="1"><g transform="translate(378.813439, 103.673999)"><g><path d="M 59.90625 -32.296875 C 61.3125 -32.296875 62.535156 -31.878906 63.578125 -31.046875 C 64.628906 -30.222656 65.15625 -28.984375 65.15625 -27.328125 C 65.15625 -26.492188 64.929688 -25.441406 64.484375 -24.171875 C 64.046875 -22.898438 63.476562 -21.335938 62.78125 -19.484375 C 60.738281 -14.328125 58.300781 -10.347656 55.46875 -7.546875 C 52.632812 -4.742188 49.703125 -2.785156 46.671875 -1.671875 C 43.648438 -0.554688 40.800781 0 38.125 0 C 37.164062 0 35.875 -0.125 34.25 -0.375 C 32.625 -0.632812 31 -1.128906 29.375 -1.859375 C 27.75 -2.597656 26.429688 -3.695312 25.421875 -5.15625 C 23.628906 -3.5625 21.632812 -2.300781 19.4375 -1.375 C 17.238281 -0.457031 15.023438 0 12.796875 0 C 9.992188 0 7.476562 -0.648438 5.25 -1.953125 C 3.019531 -3.265625 1.253906 -5.019531 -0.046875 -7.21875 C -1.347656 -9.414062 -2 -11.816406 -2 -14.421875 C -2 -15.316406 -1.90625 -16.191406 -1.71875 -17.046875 C -1.53125 -17.910156 -1.304688 -18.757812 -1.046875 -19.59375 L 7.9375 -45.296875 C 9.207031 -48.984375 11.367188 -51.703125 14.421875 -53.453125 C 17.484375 -55.210938 20.578125 -56.09375 23.703125 -56.09375 C 26.117188 -56.09375 28.234375 -55.800781 30.046875 -55.21875 C 31.859375 -54.644531 33.273438 -54.039062 34.296875 -53.40625 C 35.066406 -54.613281 36.085938 -55.519531 37.359375 -56.125 C 38.628906 -56.738281 39.9375 -57.046875 41.28125 -57.046875 C 43.0625 -57.046875 44.664062 -56.503906 46.09375 -55.421875 C 47.53125 -54.335938 48.25 -52.742188 48.25 -50.640625 C 48.25 -49.679688 48.054688 -48.628906 47.671875 -47.484375 L 36.984375 -16.53125 C 36.660156 -15.382812 36.5 -14.460938 36.5 -13.765625 C 36.5 -12.171875 37.359375 -11.375 39.078125 -11.375 C 40.546875 -11.375 42.125 -11.863281 43.8125 -12.84375 C 45.5 -13.832031 47.171875 -15.472656 48.828125 -17.765625 C 50.484375 -20.066406 51.914062 -23.160156 53.125 -27.046875 C 53.695312 -28.890625 54.632812 -30.222656 55.9375 -31.046875 C 57.25 -31.878906 58.570312 -32.296875 59.90625 -32.296875 Z M 28.375 -33.25 C 29.144531 -35.664062 29.53125 -37.546875 29.53125 -38.890625 C 29.53125 -40.546875 29.113281 -41.800781 28.28125 -42.65625 C 27.457031 -43.519531 26.597656 -43.953125 25.703125 -43.953125 C 24.941406 -43.953125 23.96875 -43.582031 22.78125 -42.84375 C 21.601562 -42.113281 20.570312 -40.285156 19.6875 -37.359375 L 13.5625 -18.15625 C 13.4375 -17.707031 13.3125 -17.210938 13.1875 -16.671875 C 13.0625 -16.128906 13 -15.539062 13 -14.90625 C 13 -12.550781 14.046875 -11.375 16.140625 -11.375 C 17.160156 -11.375 18.4375 -11.863281 19.96875 -12.84375 C 21.5 -13.832031 22.773438 -15.890625 23.796875 -19.015625 Z M 28.375 -33.25 "/></g></g></g></g></g></svg>